<svg aria-hidden="true" style="position: absolute; width: 0; height: 0; overflow: hidden;" version="1.1" xmlns="http://www.w3.org/2000/svg" xmlns:xlink="http://www.w3.org/1999/xlink">
<defs>
        <symbol id="icon-compass" viewBox="0 0 32 32">
            <title>compass</title>
            <path d="M17 32c-0.072 0-0.144-0.008-0.217-0.024-0.458-0.102-0.783-0.507-0.783-0.976v-15h-15c-0.469 0-0.875-0.326-0.976-0.783s0.129-0.925 0.553-1.123l30-14c0.381-0.178 0.833-0.098 1.13 0.199s0.377 0.749 0.199 1.13l-14 30c-0.167 0.358-0.524 0.577-0.906 0.577zM5.508 14h11.492c0.552 0 1 0.448 1 1v11.492l10.931-23.423-23.423 10.931z"></path>
        </symbol>
        
        <symbol id="icon-ctrl" viewBox="0 0 32 32">
            <title>ctrl</title>
            <path d="M23 14c-0.278 0-0.555-0.116-0.753-0.341l-6.247-7.14-6.247 7.14c-0.364 0.416-0.995 0.458-1.411 0.094s-0.458-0.995-0.094-1.411l7-8c0.19-0.217 0.464-0.341 0.753-0.341s0.563 0.125 0.753 0.341l7 8c0.364 0.416 0.322 1.047-0.094 1.411-0.19 0.166-0.424 0.247-0.658 0.247z"></path>
        </symbol>
        
        <symbol id="icon-quill" viewBox="0 0 32 32">
            <title>quill</title>
            <path d="M0 32c4-12 14.469-32 32-32-8.219 6.594-12 22-18 22s-6 0-6 0l-6 10h-2z"></path>
        </symbol>
        
        <symbol id="icon-backward" viewBox="0 0 64 64">
            <title>backward</title>
            <path d="M32.002,13C14.328,13,0,21.597,0,32.201c0,2.254,0.912,5.9,2.1,6.424c1.189,0.523,4.453,1.82,33.396-10.229  c0,0-24.256,10.909-26.215,15.6C8.607,45.605,15.025,51,32.002,51C49.674,51,64,42.604,64,32.001C64,21.396,49.674,13,32.002,13z"/>
        </symbol>
    
    </defs>
</svg>
