<svg aria-hidden="true" style="position: absolute; width: 0; height: 0; overflow: hidden;" version="1.1" xmlns="http://www.w3.org/2000/svg" xmlns:xlink="http://www.w3.org/1999/xlink">
<defs>
        <symbol id="icon-compass" viewBox="0 0 32 32">
            <title>compass</title>
            <path d="M17 32c-0.072 0-0.144-0.008-0.217-0.024-0.458-0.102-0.783-0.507-0.783-0.976v-15h-15c-0.469 0-0.875-0.326-0.976-0.783s0.129-0.925 0.553-1.123l30-14c0.381-0.178 0.833-0.098 1.13 0.199s0.377 0.749 0.199 1.13l-14 30c-0.167 0.358-0.524 0.577-0.906 0.577zM5.508 14h11.492c0.552 0 1 0.448 1 1v11.492l10.931-23.423-23.423 10.931z"></path>
        </symbol>
        
        <symbol id="icon-ctrl" viewBox="0 0 32 32">
            <title>ctrl</title>
            <path d="M23 14c-0.278 0-0.555-0.116-0.753-0.341l-6.247-7.14-6.247 7.14c-0.364 0.416-0.995 0.458-1.411 0.094s-0.458-0.995-0.094-1.411l7-8c0.19-0.217 0.464-0.341 0.753-0.341s0.563 0.125 0.753 0.341l7 8c0.364 0.416 0.322 1.047-0.094 1.411-0.19 0.166-0.424 0.247-0.658 0.247z"></path>
        </symbol>
        
        <symbol id="icon-quill" viewBox="0 0 32 32">
            <title>quill</title>
            <path d="M0 32c4-12 14.469-32 32-32-8.219 6.594-12 22-18 22s-6 0-6 0l-6 10h-2z"></path>
        </symbol>
        
        <symbol id="icon-backward" viewBox="0 0 64 64">
            <title>backward</title>
            <path d="M32.002,13C14.328,13,0,21.597,0,32.201c0,2.254,0.912,5.9,2.1,6.424c1.189,0.523,4.453,1.82,33.396-10.229  c0,0-24.256,10.909-26.215,15.6C8.607,45.605,15.025,51,32.002,51C49.674,51,64,42.604,64,32.001C64,21.396,49.674,13,32.002,13z"/>
        </symbol>
        
        <symbol id="icon-arrow" viewBox="0 0 24 24">
            <title>arrow</title>
            <path d="M22 12L2 24l5-12L2 0z"/>
        </symbol>
        <symbol id="icon-ajax-loader" viewBox="0 0 32 32">
            <title>ajax-loader</title>
            <g fill="#eff0dd"><path transform="rotate(0,16,16) translate(1.6,1.6) scale(0.9,0.9)" d="M10.657013,28.944977C12.35199,29.644989,14.149017,30,16,30L16.015015,32 16,32C13.88501,32,11.830994,31.593994,9.8940125,30.794006z M25.903992,25.894989L27.319,27.307983C25.824005,28.804993,24.080017,29.972992,22.13501,30.781006L21.368011,28.934998C23.069,28.227997,24.595001,27.204987,25.903992,25.894989z M3.0700073,21.380981C3.7789917,23.082001,4.8040161,24.606995,6.1149902,25.914978L4.7030029,27.330994C3.2059937,25.837982,2.0350037,24.095001,1.223999,22.151001z M32,15.938995L32,16C32,18.118988,31.591003,20.177979,30.787018,22.121002L28.938995,21.35498C29.643005,19.656982,30,17.85498,30,16z M1.2000122,9.9100037L3.0490112,10.67099C2.3529968,12.362,2,14.153992,2,16L0,16.031006 0,16C0,13.891998,0.40301514,11.842987,1.2000122,9.9100037z M27.27301,4.6459961C28.77301,6.1359863,29.946991,7.8769836,30.761017,9.8179932L28.916992,10.59198C28.20401,8.8930054,27.177002,7.3699951,25.863007,6.0650024z M9.8340149,1.2309875L10.605011,3.0769958C8.9049988,3.7869873,7.381012,4.8129883,6.0750122,6.1259766L4.6570129,4.7149963C6.1490173,3.2160034,7.8909912,2.0440063,9.8340149,1.2309875z M15.953003,0L16,0C18.10199,0,20.145996,0.40197754,22.075012,1.1940002L21.315002,3.0440063C19.627991,2.3509827,17.839996,2,16,2z"><animateTransform attributeName="transform" attributeType="XML" type="rotate" from="0, 16, 16" to="360, 16, 16" dur="1.5s" repeatCount="indefinite" /></path></g>
        </symbol>

        

    
    </defs>
</svg>
